<svg width="512" height="512" viewBox="0 0 512 512" xmlns="http://www.w3.org/2000/svg" xmlns:xlink="http://www.w3.org/1999/xlink">
  <defs>
    <!-- Precision gradient - ascending blue spectrum -->
    <linearGradient id="ascendGrad" x1="50%" y1="100%" x2="50%" y2="0%" gradientUnits="objectBoundingBox">
      <stop offset="0%" stop-color="#19376D" stop-opacity="1"/>
      <stop offset="35%" stop-color="#2980B9" stop-opacity="1"/>
      <stop offset="70%" stop-color="#3498DB" stop-opacity="1"/>
      <stop offset="100%" stop-color="#5DADE2" stop-opacity="1"/>
    </linearGradient>

    <!-- Accent gradient for trajectory -->
    <linearGradient id="trajectoryGrad" x1="0%" y1="100%" x2="100%" y2="0%">
      <stop offset="0%" stop-color="#3498DB" stop-opacity="0.9"/>
      <stop offset="100%" stop-color="#5DADE2" stop-opacity="1"/>
    </linearGradient>

    <!-- Radial highlight -->
    <radialGradient id="highlight" cx="50%" cy="30%">
      <stop offset="0%" stop-color="#ffffff" stop-opacity="0.15"/>
      <stop offset="100%" stop-color="#ffffff" stop-opacity="0"/>
    </radialGradient>

    <!-- Refined shadow -->
    <filter id="precisionShadow" x="-50%" y="-50%" width="200%" height="200%">
      <feGaussianBlur in="SourceAlpha" stdDeviation="3.5" result="blur"/>
      <feOffset in="blur" dx="0" dy="3" result="offsetBlur"/>
      <feComponentTransfer in="offsetBlur" result="shadow">
        <feFuncA type="linear" slope="0.12"/>
      </feComponentTransfer>
      <feMerge>
        <feMergeNode in="shadow"/>
        <feMergeNode in="SourceGraphic"/>
      </feMerge>
    </filter>
  </defs>

  <!-- Pure white canvas -->
  <rect width="512" height="512" fill="#FFFFFF"/>

  <!-- Main composition -->
  <g filter="url(#precisionShadow)">

    <!-- The S - Engineered with mathematical precision -->
    <!-- Upper arc -->
    <path d="
      M 145 138
      C 145 95, 185 60, 245 60
      C 305 60, 350 90, 360 135
      C 365 155, 358 175, 340 192
      C 322 209, 295 220, 260 232
      L 230 243
      C 205 252, 185 262, 170 275
      C 155 288, 148 305, 148 325
      C 148 360, 175 390, 220 400
      C 240 405, 262 406, 285 402
      "
      fill="none"
      stroke="url(#ascendGrad)"
      stroke-width="48"
      stroke-linecap="round"
      stroke-linejoin="round"
    />

    <!-- Lower arc -->
    <path d="
      M 360 368
      C 360 410, 320 445, 260 445
      C 200 445, 155 415, 145 370
      C 140 350, 147 330, 165 313
      C 183 296, 210 285, 245 273
      L 275 262
      C 300 253, 320 243, 335 230
      C 350 217, 357 200, 357 180
      C 357 145, 330 115, 285 105
      C 265 100, 243 99, 220 103
      "
      fill="none"
      stroke="url(#ascendGrad)"
      stroke-width="48"
      stroke-linecap="round"
      stroke-linejoin="round"
    />

    <!-- Ascending trajectory - integrated seamlessly -->
    <g transform="translate(385, 60)">
      <!-- Shaft - tapered for elegance -->
      <path d="M -7 70 L -9 115 L 9 115 L 7 70 Z"
            fill="url(#trajectoryGrad)"/>

      <!-- Head - sharp and directive -->
      <path d="M 0 -2 L -26 52 L -9 52 L -9 68 L 9 68 L 9 52 L 26 52 Z"
            fill="url(#trajectoryGrad)"/>
    </g>

    <!-- Metric visualization - data points in ascent -->
    <g opacity="0.45">
      <!-- Base point -->
      <circle cx="408" cy="205" r="3.2" fill="#2980B9"/>
      <!-- Rising points -->
      <circle cx="420" cy="180" r="3.6" fill="#3498DB"/>
      <circle cx="435" cy="150" r="4" fill="#3498DB"/>
      <circle cx="448" cy="120" r="3.4" fill="#5DADE2"/>

      <!-- Connection curve - growth trajectory -->
      <path d="M 408 205 Q 420 180, 435 150 Q 442 135, 448 120"
            fill="none"
            stroke="#3498DB"
            stroke-width="1.8"
            opacity="0.35"
            stroke-linecap="round"
            stroke-linejoin="round"/>
    </g>

    <!-- Motion lines - velocity indicators -->
    <g opacity="0.28" stroke="#5DADE2" stroke-width="2" stroke-linecap="round">
      <line x1="350" y1="145" x2="365" y2="138"/>
      <line x1="355" y1="158" x2="372" y2="150"/>
    </g>

    <!-- Highlight overlay for depth -->
    <ellipse cx="256" cy="180" rx="180" ry="200" fill="url(#highlight)"/>
  </g>

  <!-- Typographic anchor - whispered -->
  <g opacity="0.18">
    <text x="256" y="488"
          font-family="-apple-system, BlinkMacSystemFont, system-ui, sans-serif"
          font-size="18"
          font-weight="300"
          letter-spacing="4.5"
          text-anchor="middle"
          fill="#2C3E50">ASCEND</text>
  </g>
</svg>